<svg width="66" height="48" viewBox="0 0 66 48" fill="none" xmlns="http://www.w3.org/2000/svg">
<path fill-rule="evenodd" clip-rule="evenodd" d="M57.4544 48H45.595C41.0296 48 37.2967 44.4056 37.2967 40.0095C37.2967 23.5682 32.9354 5.50807 53.8611 0.351732C63.3411 -1.98077 65.8118 8.07331 55.7303 8.76634C49.5804 9.19044 48.3773 13.0176 48.1893 18.7997H57.7015C62.2669 18.7997 65.9998 22.3942 65.9998 26.7903V39.7664C65.9998 44.297 62.1541 48 57.4544 48ZM20.5335 48H8.67413C4.1087 48 0.375787 44.4056 0.375787 40.0095C0.375787 23.5682 -3.98554 5.50807 16.9402 0.351732C26.4256 -1.98595 28.8963 8.06814 18.8094 8.76634C12.6595 9.19044 11.4564 13.0176 11.2684 18.7997H20.7859C25.3514 18.7997 29.0843 22.3942 29.0843 26.7903V39.7664C29.0789 44.297 25.2332 48 20.5335 48Z" fill="#FC9100"/>
</svg>
